<svg xmlns="http://www.w3.org/2000/svg" width="32" height="32" viewBox="0 0 32 32">
  <path fill="#61DAFB" d="M16 13.146c-1.573 0-2.854 1.281-2.854 2.854s1.281 2.854 2.854 2.854 2.854-1.281 2.854-2.854-1.281-2.854-2.854-2.854zm-7.99 8.526c-.396-.396-.396-1.039 0-1.435.396-.396 1.039-.396 1.435 0 .396.396.396 1.039 0 1.435-.396.396-1.039.396-1.435 0zm15.98 0c-.396-.396-.396-1.039 0-1.435.396-.396 1.039-.396 1.435 0 .396.396.396 1.039 0 1.435-.396.396-1.039.396-1.435 0z"/>
  <path fill="#61DAFB" d="M16 9.22c-3.783 0-6.854 3.071-6.854 6.854s3.071 6.854 6.854 6.854 6.854-3.071 6.854-6.854-3.071-6.854-6.854-6.854zm0 12.707c-3.234 0-5.854-2.62-5.854-5.854s2.62-5.854 5.854-5.854 5.854 2.62 5.854 5.854-2.62 5.854-5.854 5.854z"/>
</svg>