<svg xmlns="http://www.w3.org/2000/svg" width="32" height="32" viewBox="0 0 32 32">
  <rect x="2" y="2" width="28" height="28" rx="1.312" fill="#3178C6"/>
  <path d="M18.245 23.759v3.068a6.492 6.492 0 001.764.575 11.56 11.56 0 002.146.192 9.968 9.968 0 002.088-.211 5.11 5.11 0 001.735-.7 3.542 3.542 0 001.181-1.266 3.853 3.853 0 00.431-1.894 3.221 3.221 0 00-.272-1.356 3.008 3.008 0 00-.785-1.04 5.166 5.166 0 00-1.242-.816 15.366 15.366 0 00-1.652-.683l-1.242-.431a6.73 6.73 0 01-1.061-.422 2.878 2.878 0 01-.707-.422 1.51 1.51 0 01-.382-.488 1.3 1.3 0 01-.115-.549 1.273 1.273 0 01.144-.61 1.4 1.4 0 01.44-.488 2.337 2.337 0 01.746-.326 4.062 4.062 0 011.062-.115 5.773 5.773 0 01.851.058 7 7 0 01.746.144c.23.058.451.125.662.211.211.077.413.154.603.221v-2.877a7.761 7.761 0 00-1.471-.364 10.231 10.231 0 00-1.89-.153 9.029 9.029 0 00-2.069.23 5.29 5.29 0 00-1.726.708 3.619 3.619 0 00-1.19 1.248 3.542 3.542 0 00-.44 1.807 3.81 3.81 0 00.956 2.684 6.444 6.444 0 002.929 1.518l1.242.432c.365.125.681.24.947.364a2.374 2.374 0 01.622.383 1.3 1.3 0 01.344.459 1.575 1.575 0 01.105.574 1.273 1.273 0 01-.153.64 1.368 1.368 0 01-.459.469 2.443 2.443 0 01-.775.287 4.733 4.733 0 01-1.1.1 6.286 6.286 0 01-1.836-.25 6.133 6.133 0 01-1.489-.645zm-6.817-6.701H8.539v10.003h2.889v-10.003z" fill="#fff"/>
</svg>