<svg xmlns="http://www.w3.org/2000/svg" xmlns:xlink="http://www.w3.org/1999/xlink" width="1200" zoomAndPan="magnify" viewBox="0 0 900 299.999988" height="400" preserveAspectRatio="xMidYMid meet" version="1.2"><defs><clipPath id="a73e38c830"><path d="M 23 48.835938 L 208 48.835938 L 208 251.335938 L 23 251.335938 Z M 23 48.835938 "/></clipPath></defs><g id="dad1cb7747"><rect x="0" width="900" y="0" height="299.999988" style="fill:#ffffff;fill-opacity:1;stroke:none;"/><rect x="0" width="900" y="0" height="299.999988" style="fill:#02c37e;fill-opacity:1;stroke:none;"/><g style="fill:#f9fcff;fill-opacity:1;"><g transform="translate(208.551165, 198.418735)"><path style="stroke:none" d="M 4.640625 -49.578125 C 4.640625 -59.335938 6.753906 -68.046875 10.984375 -75.703125 C 15.210938 -83.359375 21.101562 -89.320312 28.65625 -93.59375 C 36.21875 -97.863281 44.785156 -100 54.359375 -100 C 66.097656 -100 76.144531 -96.898438 84.5 -90.703125 C 92.863281 -84.503906 98.453125 -76.050781 101.265625 -65.34375 L 74.78125 -65.34375 C 72.8125 -69.476562 70.019531 -72.625 66.40625 -74.78125 C 62.789062 -76.945312 58.679688 -78.03125 54.078125 -78.03125 C 46.660156 -78.03125 40.648438 -75.445312 36.046875 -70.28125 C 31.453125 -65.113281 29.15625 -58.210938 29.15625 -49.578125 C 29.15625 -40.941406 31.453125 -34.039062 36.046875 -28.875 C 40.648438 -23.707031 46.660156 -21.125 54.078125 -21.125 C 58.679688 -21.125 62.789062 -22.203125 66.40625 -24.359375 C 70.019531 -26.523438 72.8125 -29.671875 74.78125 -33.796875 L 101.265625 -33.796875 C 98.453125 -23.097656 92.863281 -14.671875 84.5 -8.515625 C 76.144531 -2.367188 66.097656 0.703125 54.359375 0.703125 C 44.785156 0.703125 36.21875 -1.429688 28.65625 -5.703125 C 21.101562 -9.972656 15.210938 -15.910156 10.984375 -23.515625 C 6.753906 -31.117188 4.640625 -39.804688 4.640625 -49.578125 Z M 4.640625 -49.578125 "/></g></g><g style="fill:#f9fcff;fill-opacity:1;"><g transform="translate(313.040801, 198.418735)"><path style="stroke:none" d="M 57.046875 -79.4375 C 66.054688 -79.4375 73.285156 -76.453125 78.734375 -70.484375 C 84.179688 -64.523438 86.90625 -56.335938 86.90625 -45.921875 L 86.90625 0 L 62.953125 0 L 62.953125 -42.671875 C 62.953125 -47.929688 61.585938 -52.015625 58.859375 -54.921875 C 56.140625 -57.835938 52.484375 -59.296875 47.890625 -59.296875 C 43.285156 -59.296875 39.617188 -57.835938 36.890625 -54.921875 C 34.171875 -52.015625 32.8125 -47.929688 32.8125 -42.671875 L 32.8125 0 L 8.734375 0 L 8.734375 -104.21875 L 32.8125 -104.21875 L 32.8125 -68.03125 C 35.257812 -71.5 38.59375 -74.265625 42.8125 -76.328125 C 47.039062 -78.398438 51.785156 -79.4375 57.046875 -79.4375 Z M 57.046875 -79.4375 "/></g></g><g style="fill:#f9fcff;fill-opacity:1;"><g transform="translate(405.138057, 198.418735)"><path style="stroke:none" d="M 82.8125 -40.5625 C 82.8125 -38.3125 82.671875 -35.960938 82.390625 -33.515625 L 27.890625 -33.515625 C 28.265625 -28.640625 29.835938 -24.910156 32.609375 -22.328125 C 35.378906 -19.742188 38.78125 -18.453125 42.8125 -18.453125 C 48.820312 -18.453125 53.003906 -20.988281 55.359375 -26.0625 L 80.984375 -26.0625 C 79.671875 -20.894531 77.300781 -16.242188 73.875 -12.109375 C 70.445312 -7.984375 66.148438 -4.742188 60.984375 -2.390625 C 55.816406 -0.046875 50.039062 1.125 43.65625 1.125 C 35.957031 1.125 29.101562 -0.515625 23.09375 -3.796875 C 17.082031 -7.085938 12.382812 -11.785156 9 -17.890625 C 5.625 -23.992188 3.9375 -31.128906 3.9375 -39.296875 C 3.9375 -47.460938 5.601562 -54.597656 8.9375 -60.703125 C 12.269531 -66.804688 16.941406 -71.5 22.953125 -74.78125 C 28.960938 -78.070312 35.863281 -79.71875 43.65625 -79.71875 C 51.257812 -79.71875 58.019531 -78.117188 63.9375 -74.921875 C 69.851562 -71.734375 74.476562 -67.179688 77.8125 -61.265625 C 81.144531 -55.347656 82.8125 -48.445312 82.8125 -40.5625 Z M 58.171875 -46.90625 C 58.171875 -51.03125 56.757812 -54.3125 53.9375 -56.75 C 51.125 -59.195312 47.601562 -60.421875 43.375 -60.421875 C 39.34375 -60.421875 35.941406 -59.242188 33.171875 -56.890625 C 30.398438 -54.546875 28.6875 -51.21875 28.03125 -46.90625 Z M 58.171875 -46.90625 "/></g></g><g style="fill:#f9fcff;fill-opacity:1;"><g transform="translate(489.0676, 198.418735)"><path style="stroke:none" d="M 3.9375 -39.296875 C 3.9375 -47.460938 5.601562 -54.597656 8.9375 -60.703125 C 12.269531 -66.804688 16.914062 -71.5 22.875 -74.78125 C 28.84375 -78.070312 35.675781 -79.71875 43.375 -79.71875 C 53.238281 -79.71875 61.476562 -77.132812 68.09375 -71.96875 C 74.71875 -66.800781 79.0625 -59.523438 81.125 -50.140625 L 55.5 -50.140625 C 53.332031 -56.148438 49.148438 -59.15625 42.953125 -59.15625 C 38.546875 -59.15625 35.023438 -57.441406 32.390625 -54.015625 C 29.765625 -50.585938 28.453125 -45.679688 28.453125 -39.296875 C 28.453125 -32.910156 29.765625 -28.003906 32.390625 -24.578125 C 35.023438 -21.148438 38.546875 -19.4375 42.953125 -19.4375 C 49.148438 -19.4375 53.332031 -22.441406 55.5 -28.453125 L 81.125 -28.453125 C 79.0625 -19.242188 74.695312 -12.007812 68.03125 -6.75 C 61.363281 -1.5 53.144531 1.125 43.375 1.125 C 35.675781 1.125 28.84375 -0.515625 22.875 -3.796875 C 16.914062 -7.085938 12.269531 -11.785156 8.9375 -17.890625 C 5.601562 -23.992188 3.9375 -31.128906 3.9375 -39.296875 Z M 3.9375 -39.296875 "/></g></g><g style="fill:#f9fcff;fill-opacity:1;"><g transform="translate(571.448077, 198.418735)"><path style="stroke:none" d="M 56.765625 0 L 32.8125 -32.953125 L 32.8125 0 L 8.734375 0 L 8.734375 -104.21875 L 32.8125 -104.21875 L 32.8125 -46.625 L 56.625 -78.59375 L 86.34375 -78.59375 L 53.65625 -39.15625 L 86.625 0 Z M 56.765625 0 "/></g></g><g style="fill:#f9fcff;fill-opacity:1;"><g transform="translate(655.659261, 198.418735)"><path style="stroke:none" d="M 4.640625 -49.578125 C 4.640625 -59.335938 6.753906 -68.046875 10.984375 -75.703125 C 15.210938 -83.359375 21.101562 -89.320312 28.65625 -93.59375 C 36.21875 -97.863281 44.785156 -100 54.359375 -100 C 66.097656 -100 76.144531 -96.898438 84.5 -90.703125 C 92.863281 -84.503906 98.453125 -76.050781 101.265625 -65.34375 L 74.78125 -65.34375 C 72.8125 -69.476562 70.019531 -72.625 66.40625 -74.78125 C 62.789062 -76.945312 58.679688 -78.03125 54.078125 -78.03125 C 46.660156 -78.03125 40.648438 -75.445312 36.046875 -70.28125 C 31.453125 -65.113281 29.15625 -58.210938 29.15625 -49.578125 C 29.15625 -40.941406 31.453125 -34.039062 36.046875 -28.875 C 40.648438 -23.707031 46.660156 -21.125 54.078125 -21.125 C 58.679688 -21.125 62.789062 -22.203125 66.40625 -24.359375 C 70.019531 -26.523438 72.8125 -29.671875 74.78125 -33.796875 L 101.265625 -33.796875 C 98.453125 -23.097656 92.863281 -14.671875 84.5 -8.515625 C 76.144531 -2.367188 66.097656 0.703125 54.359375 0.703125 C 44.785156 0.703125 36.21875 -1.429688 28.65625 -5.703125 C 21.101562 -9.972656 15.210938 -15.910156 10.984375 -23.515625 C 6.753906 -31.117188 4.640625 -39.804688 4.640625 -49.578125 Z M 4.640625 -49.578125 "/></g></g><g style="fill:#f9fcff;fill-opacity:1;"><g transform="translate(760.148897, 198.418735)"><path style="stroke:none" d="M 32.8125 -104.21875 L 32.8125 0 L 8.734375 0 L 8.734375 -104.21875 Z M 32.8125 -104.21875 "/></g></g><g style="fill:#f9fcff;fill-opacity:1;"><g transform="translate(798.874374, 198.418735)"><path style="stroke:none" d="M 82.8125 -40.5625 C 82.8125 -38.3125 82.671875 -35.960938 82.390625 -33.515625 L 27.890625 -33.515625 C 28.265625 -28.640625 29.835938 -24.910156 32.609375 -22.328125 C 35.378906 -19.742188 38.78125 -18.453125 42.8125 -18.453125 C 48.820312 -18.453125 53.003906 -20.988281 55.359375 -26.0625 L 80.984375 -26.0625 C 79.671875 -20.894531 77.300781 -16.242188 73.875 -12.109375 C 70.445312 -7.984375 66.148438 -4.742188 60.984375 -2.390625 C 55.816406 -0.046875 50.039062 1.125 43.65625 1.125 C 35.957031 1.125 29.101562 -0.515625 23.09375 -3.796875 C 17.082031 -7.085938 12.382812 -11.785156 9 -17.890625 C 5.625 -23.992188 3.9375 -31.128906 3.9375 -39.296875 C 3.9375 -47.460938 5.601562 -54.597656 8.9375 -60.703125 C 12.269531 -66.804688 16.941406 -71.5 22.953125 -74.78125 C 28.960938 -78.070312 35.863281 -79.71875 43.65625 -79.71875 C 51.257812 -79.71875 58.019531 -78.117188 63.9375 -74.921875 C 69.851562 -71.734375 74.476562 -67.179688 77.8125 -61.265625 C 81.144531 -55.347656 82.8125 -48.445312 82.8125 -40.5625 Z M 58.171875 -46.90625 C 58.171875 -51.03125 56.757812 -54.3125 53.9375 -56.75 C 51.125 -59.195312 47.601562 -60.421875 43.375 -60.421875 C 39.34375 -60.421875 35.941406 -59.242188 33.171875 -56.890625 C 30.398438 -54.546875 28.6875 -51.21875 28.03125 -46.90625 Z M 58.171875 -46.90625 "/></g></g><g clip-rule="nonzero" clip-path="url(#a73e38c830)"><path style=" stroke:none;fill-rule:nonzero;fill:#ffffff;fill-opacity:1;" d="M 194.664062 97.140625 C 186.671875 87.308594 176.753906 79.488281 164.914062 73.671875 C 153.070312 67.859375 140.246094 64.953125 126.441406 64.953125 C 114.429688 64.953125 103.101562 67.175781 92.457031 71.621094 C 81.855469 76.066406 72.578125 82.179688 64.671875 89.875 C 56.761719 97.613281 50.519531 106.589844 45.988281 116.847656 C 41.457031 127.109375 39.148438 138.050781 39.148438 149.679688 C 39.148438 161.304688 41.414062 172.25 45.988281 182.507812 C 50.519531 192.769531 56.761719 201.746094 64.671875 209.355469 C 72.578125 217.003906 81.855469 223.03125 92.5 227.480469 C 103.144531 231.925781 114.472656 234.148438 126.484375 234.148438 C 140.289062 234.148438 153.113281 231.242188 164.957031 225.425781 C 176.796875 219.613281 186.671875 211.789062 194.707031 201.957031 L 207.277344 211.789062 L 207.53125 211.789062 C 198.085938 223.800781 186.328125 233.378906 172.351562 240.472656 C 158.332031 247.613281 143.070312 251.160156 126.527344 251.160156 C 112.332031 251.160156 98.953125 248.46875 86.429688 243.125 C 73.859375 237.78125 62.917969 230.429688 53.554688 221.152344 C 44.195312 211.875 36.757812 201.105469 31.328125 188.835938 C 25.8125 176.652344 23.078125 163.613281 23.078125 149.765625 C 23.078125 135.957031 25.8125 122.875 31.285156 110.605469 C 36.757812 98.339844 44.152344 87.609375 53.511719 78.417969 C 62.875 69.226562 73.816406 62.003906 86.386719 56.746094 C 98.910156 51.488281 112.292969 48.835938 126.484375 48.835938 C 143.027344 48.835938 158.332031 52.300781 172.308594 59.222656 C 186.328125 66.148438 198.042969 75.511719 207.488281 87.308594 L 207.234375 87.566406 Z M 126.398438 95.515625 C 118.746094 95.515625 111.523438 96.929688 104.726562 99.75 C 97.886719 102.570312 91.941406 106.417969 86.855469 111.332031 C 81.769531 116.25 77.75 122.019531 74.84375 128.648438 C 71.9375 135.273438 70.484375 142.324219 70.484375 149.804688 C 70.484375 157.289062 71.9375 164.253906 74.84375 170.839844 C 77.75 177.378906 81.769531 183.105469 86.855469 188.023438 C 91.941406 192.9375 97.886719 196.785156 104.726562 199.609375 C 111.5625 202.429688 118.789062 203.839844 126.398438 203.839844 C 135.289062 203.839844 143.539062 201.957031 151.105469 198.238281 C 158.671875 194.519531 164.957031 189.5625 170.085938 183.363281 L 182.910156 193.195312 C 176.371094 201.402344 168.164062 207.902344 158.371094 212.6875 C 148.539062 217.519531 137.898438 219.914062 126.441406 219.914062 C 116.4375 219.914062 107.074219 218.074219 98.355469 214.441406 C 89.636719 210.808594 81.984375 205.804688 75.441406 199.4375 C 68.816406 193.152344 63.6875 185.671875 59.96875 177.121094 C 56.25 168.574219 54.367188 159.46875 54.367188 149.847656 C 54.367188 140.230469 56.25 131.125 59.96875 122.578125 C 63.6875 114.027344 68.859375 106.589844 75.398438 100.21875 C 81.941406 93.851562 89.59375 88.804688 98.3125 85.085938 C 107.03125 81.367188 116.394531 79.488281 126.398438 79.488281 C 137.855469 79.488281 148.5 81.878906 158.332031 86.710938 C 168.164062 91.542969 176.328125 98.039062 182.867188 106.203125 L 170.042969 116.292969 C 164.785156 109.921875 158.414062 104.878906 150.933594 101.160156 C 143.496094 97.398438 135.289062 95.515625 126.398438 95.515625 Z M 126.398438 95.515625 "/></g></g></svg>